<svg width="24" height="24" viewBox="0 0 24 24" fill="none" xmlns="http://www.w3.org/2000/svg">
<g clip-path="url(#clip0)">
<path d="M20.0312 12.9956C19.9735 12.9665 19.9158 12.952 19.8576 12.952C19.7324 12.952 19.622 13.0001 19.5259 13.0964L18.6022 14.02C18.5159 14.1067 18.4725 14.2124 18.4725 14.3376V18.0029C18.4725 18.6381 18.2469 19.1814 17.7944 19.6338C17.3422 20.0859 16.7986 20.312 16.1635 20.312H4.15638C3.5213 20.312 2.97766 20.0859 2.52551 19.6338C2.07327 19.1814 1.84727 18.6381 1.84727 18.0029V5.99603C1.84727 5.36105 2.07327 4.81747 2.52551 4.36517C2.97766 3.91297 3.5213 3.68692 4.15638 3.68692H16.1636C16.3753 3.68692 16.5918 3.71578 16.813 3.77356C16.8708 3.79267 16.9141 3.80242 16.9426 3.80242C17.0678 3.80242 17.1785 3.75445 17.2747 3.65826L17.9818 2.9511C18.0972 2.8358 18.1406 2.69619 18.1115 2.53277C18.0827 2.3788 17.996 2.2681 17.8517 2.20082C17.3324 1.96062 16.7693 1.83997 16.1632 1.83997H4.15638C3.01148 1.83997 2.03247 2.24647 1.21947 3.05947C0.406564 3.87258 6.10352e-05 4.85143 6.10352e-05 5.99639V18.0036C6.10352e-05 19.1483 0.406564 20.1273 1.21952 20.9403C2.03253 21.7535 3.01153 22.16 4.15643 22.16H16.1635C17.3083 22.16 18.2874 21.7535 19.1004 20.9403C19.9134 20.1273 20.3203 19.1484 20.3203 18.0036V13.414C20.3202 13.2121 20.2235 13.0727 20.0312 12.9956Z" fill="#0072BC"/>
<path d="M23.6538 4.71178L22.0661 3.12413C21.8352 2.89328 21.5608 2.77783 21.2432 2.77783C20.9261 2.77783 20.6515 2.89328 20.4208 3.12413L11.0833 12.4615L7.28804 8.66596C7.05709 8.43495 6.78282 8.31966 6.46543 8.31966C6.14799 8.31966 5.87382 8.43495 5.64282 8.66596L4.05538 10.2534C3.82447 10.4843 3.70892 10.7586 3.70892 11.0762C3.70892 11.3936 3.82447 11.6678 4.05538 11.8988L10.2609 18.1043C10.4919 18.3354 10.7662 18.4506 11.0835 18.4506C11.4009 18.4506 11.6752 18.3354 11.9062 18.1043L23.6536 6.35695C23.8843 6.1261 24.0001 5.85178 24.0001 5.53434C24.0001 5.2169 23.8847 4.94263 23.6538 4.71178Z" fill="#0072BC"/>
</g>
<defs>
<clipPath id="clip0">
<rect width="24" height="24" fill="white"/>
</clipPath>
</defs>
</svg>
