<svg width="24" height="25" viewBox="0 0 24 25" fill="none" xmlns="http://www.w3.org/2000/svg">
<path d="M11.99 2.60132C6.47 2.60132 2 7.08132 2 12.6013C2 18.1213 6.47 22.6013 11.99 22.6013C17.52 22.6013 22 18.1213 22 12.6013C22 7.08132 17.52 2.60132 11.99 2.60132ZM12 20.6013C7.58 20.6013 4 17.0213 4 12.6013C4 8.18132 7.58 4.60132 12 4.60132C16.42 4.60132 20 8.18132 20 12.6013C20 17.0213 16.42 20.6013 12 20.6013ZM12.5 7.60132H11V13.6013L16.25 16.7513L17 15.5213L12.5 12.8513V7.60132Z" fill="#828282"/>
</svg>
