<svg width="25" height="24" viewBox="0 0 25 24" fill="none" xmlns="http://www.w3.org/2000/svg">
<path fill-rule="evenodd" clip-rule="evenodd" d="M7.98976 0H17.6733C21.6088 0 24.8105 3.20174 24.8105 7.13722V16.8208C24.8105 20.7563 21.6088 23.958 17.6733 23.958H7.98976C4.05428 23.958 0.852539 20.7563 0.852539 16.8208V7.13722C0.852539 3.20174 4.05428 0 7.98976 0ZM17.6734 21.5468C20.284 21.5468 22.4004 19.4304 22.4004 16.8198V7.13622C22.4004 4.52553 20.284 2.40918 17.6734 2.40918H7.9898C5.37915 2.40918 3.26276 4.52553 3.26276 7.13622V16.8198C3.26276 19.4304 5.37915 21.5468 7.9898 21.5468H17.6734Z" fill="white"/>
<path fill-rule="evenodd" clip-rule="evenodd" d="M6.63477 11.9796C6.63477 8.5629 9.41446 5.7832 12.8312 5.7832C16.2479 5.7832 19.0275 8.56286 19.0275 11.9796C19.0275 15.3962 16.2479 18.1759 12.8312 18.1759C9.41446 18.1759 6.63477 15.3962 6.63477 11.9796ZM9.04492 11.9801C9.04492 14.0712 10.7401 15.7663 12.8311 15.7663C14.9222 15.7663 16.6174 14.0711 16.6174 11.9801C16.6174 9.88898 14.9222 8.19385 12.8311 8.19385C10.7401 8.19385 9.04492 9.88898 9.04492 11.9801Z" fill="white"/>
<path d="M19.0395 7.31234C19.8595 7.31234 20.5243 6.64758 20.5243 5.82756C20.5243 5.00753 19.8595 4.34277 19.0395 4.34277C18.2194 4.34277 17.5547 5.00753 17.5547 5.82756C17.5547 6.64758 18.2194 7.31234 19.0395 7.31234Z" fill="white"/>
</svg>
