<svg width="24" height="25" viewBox="0 0 24 25" fill="none" xmlns="http://www.w3.org/2000/svg">
<path d="M15.75 1.35132C11.751 1.35132 7.5 2.66532 7.5 5.10132V8.10132C7.5 8.51532 7.836 8.85132 8.25 8.85132C8.664 8.85132 9 8.51532 9 8.10132V7.31982C10.5915 8.32332 13.2195 8.85132 15.75 8.85132C18.2805 8.85132 20.9085 8.32332 22.5 7.31982V8.10132C22.5 8.83482 20.655 10.0048 17.187 10.2943C16.776 10.3273 16.4685 10.6918 16.503 11.1043C16.5345 11.4958 16.863 11.7913 17.2485 11.7913C17.271 11.7913 17.2905 11.7898 17.313 11.7883C19.266 11.6248 21.2115 11.1193 22.5 10.2988V11.1013C22.5 11.7418 21.141 12.6628 18.6195 13.1083C18.213 13.1803 17.94 13.5703 18.012 13.9768C18.0765 14.3398 18.393 14.5963 18.7485 14.5963C18.792 14.5963 18.837 14.5933 18.8805 14.5843C20.406 14.3158 21.627 13.8763 22.5 13.3183V14.1013C22.5 14.7418 21.141 15.6628 18.6195 16.1083C18.213 16.1803 17.94 16.5703 18.012 16.9768C18.0765 17.3398 18.393 17.5963 18.7485 17.5963C18.792 17.5963 18.837 17.5933 18.8805 17.5843C20.406 17.3158 21.627 16.8748 22.5 16.3183V17.1013C22.5 17.7418 21.141 18.6628 18.6195 19.1083C18.213 19.1803 17.94 19.5703 18.012 19.9768C18.0765 20.3398 18.393 20.5963 18.7485 20.5963C18.792 20.5963 18.837 20.5933 18.8805 20.5843C20.406 20.3158 21.627 19.8748 22.5 19.3183V20.1013C22.5 20.8348 20.655 22.0048 17.187 22.2943C16.776 22.3273 16.4685 22.6918 16.503 23.1043C16.5345 23.4958 16.863 23.7913 17.2485 23.7913C17.271 23.7913 17.2905 23.7898 17.313 23.7883C20.6415 23.5093 24 22.2628 24 20.1013V5.10132C24 2.66532 19.749 1.35132 15.75 1.35132ZM15.75 7.35132C11.6295 7.35132 9 6.01782 9 5.10132C9 4.18482 11.6295 2.85132 15.75 2.85132C19.8705 2.85132 22.5 4.18482 22.5 5.10132C22.5 6.01782 19.8705 7.35132 15.75 7.35132Z" fill="#828282"/>
<path d="M8.25 10.3513C4.251 10.3513 0 11.6653 0 14.1013V20.1013C0 22.5373 4.251 23.8513 8.25 23.8513C12.249 23.8513 16.5 22.5373 16.5 20.1013V14.1013C16.5 11.6653 12.249 10.3513 8.25 10.3513ZM15 20.1013C15 21.0178 12.3705 22.3513 8.25 22.3513C4.1295 22.3513 1.5 21.0178 1.5 20.1013V19.3198C3.0915 20.3233 5.7195 20.8513 8.25 20.8513C10.7805 20.8513 13.4085 20.3233 15 19.3198V20.1013ZM15 17.1013C15 18.0178 12.3705 19.3513 8.25 19.3513C4.1295 19.3513 1.5 18.0178 1.5 17.1013V16.3198C3.0915 17.3233 5.7195 17.8513 8.25 17.8513C10.7805 17.8513 13.4085 17.3233 15 16.3198V17.1013ZM8.25 16.3513C4.1295 16.3513 1.5 15.0178 1.5 14.1013C1.5 13.1848 4.1295 11.8513 8.25 11.8513C12.3705 11.8513 15 13.1848 15 14.1013C15 15.0178 12.3705 16.3513 8.25 16.3513Z" fill="#828282"/>
</svg>
