<svg width="14" height="14" viewBox="0 0 14 14" fill="none" xmlns="http://www.w3.org/2000/svg">
<path d="M2.96875 6.09625C4.04875 8.21875 5.785 9.955 7.91125 11.035L9.56125 9.38125C9.7675 9.175 10.0638 9.115 10.3225 9.1975C11.1625 9.475 12.0662 9.625 13 9.625C13.4163 9.625 13.75 9.95875 13.75 10.375V13C13.75 13.4163 13.4163 13.75 13 13.75C5.9575 13.75 0.25 8.0425 0.25 1C0.25 0.58375 0.5875 0.25 1 0.25H3.625C4.04125 0.25 4.375 0.58375 4.375 1C4.375 1.93375 4.525 2.8375 4.8025 3.6775C4.885 3.93625 4.825 4.2325 4.61875 4.43875L2.96875 6.09625Z" fill="white"/>
</svg>
