<svg width="29" height="24" viewBox="0 0 29 24" fill="none" xmlns="http://www.w3.org/2000/svg">
<path d="M28.3939 2.79194C27.7529 3.07621 27.0874 3.30047 26.4045 3.46283C27.157 2.74784 27.7227 1.85353 28.0419 0.855331C28.133 0.570362 27.8234 0.323941 27.5661 0.476521C26.6162 1.03999 25.5929 1.46269 24.5247 1.73303C24.4627 1.74872 24.3988 1.75667 24.3346 1.75667C24.14 1.75667 23.9509 1.68442 23.8021 1.5533C22.6656 0.55165 21.2039 0 19.6863 0C19.0296 0 18.3666 0.102353 17.7156 0.304244C15.6986 0.929827 14.1424 2.59357 13.6541 4.64625C13.4709 5.41618 13.4213 6.18682 13.5066 6.9367C13.5164 7.02288 13.4756 7.08302 13.4505 7.11123C13.4064 7.16068 13.3439 7.18903 13.2789 7.18903C13.2717 7.18903 13.2642 7.18868 13.2569 7.18798C8.84178 6.77779 4.86047 4.65075 2.04627 1.19876C1.90277 1.02268 1.62757 1.04428 1.51319 1.24047C0.9621 2.18592 0.670867 3.26727 0.670867 4.36761C0.670867 6.05394 1.34837 7.64311 2.52519 8.80163C2.03031 8.6843 1.55132 8.4995 1.10638 8.25238C0.891121 8.13279 0.626267 8.28649 0.623242 8.5327C0.592431 11.0378 2.05915 13.267 4.25634 14.2707C4.21209 14.2718 4.16784 14.2723 4.12353 14.2723C3.77524 14.2723 3.4226 14.2386 3.07551 14.1723C2.8331 14.126 2.62944 14.356 2.70472 14.591C3.41788 16.8175 5.33496 18.4587 7.62909 18.8313C5.7251 20.1094 3.50786 20.7836 1.20015 20.7836L0.480721 20.7832C0.25906 20.7832 0.0715878 20.9277 0.0150998 21.1424C-0.040544 21.3538 0.0619503 21.5769 0.25097 21.6868C2.85139 23.2002 5.81753 24 8.83004 24C11.467 24 13.9336 23.4767 16.1614 22.4447C18.2038 21.4987 20.0086 20.1463 21.5257 18.4251C22.9389 16.8218 24.0441 14.9709 24.8103 12.924C25.5407 10.9728 25.9268 8.8909 25.9268 6.90322V6.80853C25.9267 6.48938 26.071 6.18907 26.3229 5.98465C27.2785 5.20874 28.1107 4.29537 28.7962 3.26994C28.9772 2.99918 28.6918 2.65984 28.3939 2.79194Z" fill="white"/>
</svg>
